<?xml version="1.0" encoding="UTF-8" standalone="no"?>
<svg
   xmlns:dc="http://purl.org/dc/elements/1.1/"
   xmlns:cc="http://creativecommons.org/ns#"
   xmlns:rdf="http://www.w3.org/1999/02/22-rdf-syntax-ns#"
   xmlns:svg="http://www.w3.org/2000/svg"
   xmlns="http://www.w3.org/2000/svg"
   xmlns:sodipodi="http://sodipodi.sourceforge.net/DTD/sodipodi-0.dtd"
   xmlns:inkscape="http://www.inkscape.org/namespaces/inkscape"
   inkscape:version="1.0beta2 (f3d5b5a, 2020-03-13)"
   sodipodi:docname="logo.svg"
   version="1.1"
   viewBox="0 0 695.71 136.91"
   xml:space="preserve"
   id="svg810"><defs
     id="defs14" /><sodipodi:namedview
     inkscape:current-layer="svg810"
     inkscape:window-maximized="0"
     inkscape:window-y="199"
     inkscape:window-x="2782"
     inkscape:cy="78.137339"
     inkscape:cx="270.1494"
     inkscape:zoom="4.2296717"
     showgrid="false"
     id="namedview12"
     inkscape:window-height="1796"
     inkscape:window-width="3358"
     inkscape:pageshadow="2"
     inkscape:pageopacity="0"
     guidetolerance="10"
     gridtolerance="10"
     objecttolerance="10"
     borderopacity="1"
     bordercolor="#666666"
     pagecolor="#ffffff" /><metadata
     id="metadata816"><rdf:RDF><cc:Work
         rdf:about=""><dc:format>image/svg+xml</dc:format><dc:type
           rdf:resource="http://purl.org/dc/dcmitype/StillImage" /><dc:title /></cc:Work></rdf:RDF></metadata><g
     style="fill:#ffffff"
     id="g1488"
     transform="matrix(1.3333333,0,0,-1.3333333,-30.049053,171.25172)"><g
       style="fill:#ffffff"
       transform="translate(359.6172,55.0743)"
       id="g885"><path
         inkscape:connector-curvature="0"
         id="path887"
         style="fill:#ffffff;fill-opacity:1;fill-rule:nonzero;stroke:none"
         d="M 0,0 V 18.169 H 35.474 V 29.873 H 0 V 46.268 H 37.714 V 57.972 H -13.197 V -11.704 H 39.301 V 0 Z" /></g><g
       style="fill:#ffffff"
       transform="translate(328.6035,54.6641)"
       id="g889"><path
         inkscape:connector-curvature="0"
         id="path891"
         style="fill:#ffffff;fill-opacity:1;fill-rule:nonzero;stroke:none"
         d="m 0,0 -1.106,8.936 c -0.639,5.588 -3.055,9.46 -7.199,11.555 2.23,1.17 4.121,2.828 5.656,4.963 2.087,3.028 3.023,8.016 3.023,11.617 0,6.633 -2.227,11.817 -6.642,15.428 -4.075,3.201 -9.705,4.825 -16.734,4.825 H -53.544 V 45.721 h 11.524 l 1.511,0.036 h 16.128 c 4.26,0 7.259,-0.734 9.15,-2.231 1.705,-1.395 2.569,-3.69 2.569,-6.823 0,-3.467 -1.159,-7.089 -2.672,-8.405 -1.988,-1.657 -5.001,-2.497 -8.955,-2.497 h -16.22 v 0.154 h -13.035 v -37.249 h 13.035 v 25.529 h 16.22 c 3.484,0 5.996,-0.67 7.652,-2.026 1.679,-1.438 2.652,-3.696 2.976,-6.94 l 0.822,-6.566 c 0.407,-4.059 1.468,-7.225 3.156,-9.41 l 0.454,-0.587 H 5.805 L 3.464,-8.758 C 1.501,-6.631 0.335,-3.685 0,0" /></g><g
       style="fill:#ffffff"
       transform="translate(204.6655,113.046)"
       id="g893"><path
         inkscape:connector-curvature="0"
         id="path895"
         style="fill:#ffffff;fill-opacity:1;fill-rule:nonzero;stroke:none"
         d="M 0,0 H -14.171 L -33.581,-52.033 -53.621,0 h -0.216 -13.11 -1.062 L -87.456,-52.133 -107.534,0 h -13.327 l 25.99,-69.676 h 0.872 13.3 0.027 l 20.175,52.384 19.54,-52.384 h 0.795 13.327 0.049 l -0.025,0.065 z" /></g><g
       style="fill:#ffffff"
       transform="translate(50.2642,113.046)"
       id="g897"><path
         inkscape:connector-curvature="0"
         id="path899"
         style="fill:#ffffff;fill-opacity:1;fill-rule:nonzero;stroke:none"
         d="M 0,0 25.991,-69.676 H 40.162 L 13.327,0 Z" /></g><g
       style="fill:#ffffff"
       transform="translate(51.8306,81.0157)"
       id="g901"><path
         inkscape:connector-curvature="0"
         id="path903"
         style="fill:#ffffff;fill-opacity:1;fill-rule:nonzero;stroke:none"
         d="M 0,0 0.003,0.004 H -14.223 L -28.72,-37.641 h 14.086 l 9.498,25.955 H 7.382 L 2.771,0 Z" /></g><g
       style="fill:#ffffff"
       transform="translate(224.6494,113.046)"
       id="g905"><path
         inkscape:connector-curvature="0"
         id="path907"
         style="fill:#ffffff;fill-opacity:1;fill-rule:nonzero;stroke:none"
         d="M 0,0 25.99,-69.676 H 40.161 L 13.326,0 Z" /></g><g
       style="fill:#ffffff"
       transform="translate(226.2148,81.0157)"
       id="g909"><path
         inkscape:connector-curvature="0"
         id="path911"
         style="fill:#ffffff;fill-opacity:1;fill-rule:nonzero;stroke:none"
         d="M 0,0 0.003,0.004 H -14.223 L -28.72,-37.641 h 14.086 l 9.499,25.955 H 7.383 L 2.771,0 Z" /></g></g></svg>
